<svg version="1" xmlns="http://www.w3.org/2000/svg" width="854.667" height="854.667" viewBox="0 0 641.000000 641.000000"><path d="M517.2 2.7c0 1.6 0 4.4-.1 6.3l-.1 3.6-13.7.2c-7.6.2-15.4.4-17.3.7-1.9.2-6.2.7-9.5 1-8.5.9-12.1 1.4-19.5 2.6-3.6.6-7.4 1.2-8.5 1.4-18.6 2.6-50.2 11.2-70 19-11.5 4.5-25.7 11.2-37 17.5-3.3 1.8-6.9 3.8-8 4.4-1.1.6-2.2 1.3-2.5 1.6-.3.3-3.8 2.7-7.8 5.4-7.2 4.8-14.6 11.4-15.4 13.6-.2.6-1.9 1.3-3.8 1.5-4.5.6-12.5 4.6-17.4 8.8-7.7 6.4-16.2 15.7-17.9 19.4-.6 1.3-1.3 2.3-1.7 2.3-.4 0-1 .8-1.4 1.7-.3 1-2.4 4.9-4.6 8.8-2.2 3.8-5.6 10-7.5 13.7-1.9 3.8-3.9 6.7-4.3 6.6-2.4-.5-12.2 6.2-20 13.6-2.9 2.8-5.8 5.2-6.3 5.4-.5.2-.9.8-.9 1.3 0 .6-1 2-2.3 3.2-2.4 2.4-6 6.6-9.2 11.1-1.1 1.5-2.8 3.7-3.7 4.7-.9 1.1-3.4 4.6-5.5 7.7-2.1 3.1-4 5.9-4.3 6.2-1.8 1.6-15.2 23.4-28 45.5-4.1 7.1-18.5 32.4-21 37-1.5 2.7-3.7 6.6-4.9 8.5-2.7 4.5-10.1 19.5-10.1 20.5 0 .4-.9 1.8-2 3.2-2.8 3.6-2.5 4.7 1 3.9 3.4-.6 3.4-.4-.4 4.9-1.2 1.6-3 4.2-3.9 5.8L126 328l3.7-1.4c2.1-.8 8.1-1.7 13.3-2 9-.5 21.8-2.4 31.9-4.7 2.5-.6 5.7-1.3 7.1-1.5 5-1 19.6-5.2 24.5-7.2l5-2 .2 11.2c.1 6.1.5 15.6.8 21.1.4 5.5.7 11.9.7 14.3 0 4.3 0 4.3 1.6 2 .9-1.3 1.7-2.5 1.7-2.8 0-.3 2.1-4.8 4.7-10 2.5-5.2 4.8-10.2 5-11 .2-.8.5-1.7.9-2 .6-.6 7.8-18.6 10.7-27 1.8-5.1 3.8-7.6 3.9-4.8.1 2 1.4 11.9 2 14.2 1 4.3 3 13.5 3.6 17 .1.6.5 1.3.8 1.6.4.3 2.9 5.9 5.7 12.5 5.6 13.3 11.2 24.8 12.4 25.3.5.2.6.7.3 1.2-.3.4.2 1.3 1 2s1.5 1.9 1.5 2.6c0 .8.5 1.4 1 1.4.6 0 1 .5 1 1 0 .6 1.2 2.9 2.8 5.2 2.6 4 2.7 4.7 2.8 18.2.1 7.8-.2 16.8-.6 20.1-.5 3.3-1.1 8.7-1.4 12.1-.8 8.1-8.1 31.3-15.9 50.4-.4.8-1.8 4.9-3.2 9-1.4 4.1-3 8.4-3.5 9.5-2.5 5.3-10.3 30.9-12.6 40.8-3.9 17.9-5.6 47.3-3.4 60.2.5 2.7 1.1 6.6 1.3 8.5.6 4.2 4.6 20 5.5 21.5.4.5.7 1.6.8 2.3.6 3.9 1.3 4.2 8.9 4.2 7.1 0 7.5-.1 7.6-2.3 0-3.1.7-11.1 1.5-18.7.3-3.6.7-7.1.7-7.8 0-.6.4-1.2.9-1.2.4 0 .8.6.9 1.2.4 7 2.9 17.4 6 25.8l1.1 3H641V0H517.3l-.1 2.7zM133.3 134.6c-6.4 4.9-18.1 24.9-22.1 37.7-2.9 8.9-3.2 11.5-1.4 12.9.8.7 1.7 1.3 1.8 1.3 1 0 3.4-4.8 5.4-11 1.2-3.9 2.5-7.5 2.9-8 .3-.6.6-1.2.6-1.5.1-.3 1.1-2.4 2.3-4.8 1.2-2.3 1.9-4.2 1.5-4.2-.5 0 0-.5 1-1.1.9-.6 1.5-1.4 1.2-2-.4-.5-.2-.9.3-.9.4 0 1.8-1.7 2.9-3.8 1.2-2 4.2-5.9 6.6-8.6 2.5-2.7 4.3-5.4 4-6.1-.8-2.3-4-2.3-7 .1zM146.3 151.3c-4.5 4.9-11.7 20.5-12.8 27.4-.4 3.1-.2 4.5 1.1 5.7 2.1 2.2 4 .7 4.9-4 .8-4.3 5-14.2 8.6-20.5 4-6.8 4.3-8.6 2.1-9.8-1.5-.8-2.3-.6-3.9 1.2z"/></svg>